<svg width="171" height="86" viewBox="0 0 171 86" fill="none" xmlns="http://www.w3.org/2000/svg">
<path d="M76.16 20.8V49H68.32V33.44L63 49H56.44L51.08 33.32V49H43.24V20.8H52.72L59.8 39.12L66.72 20.8H76.16ZM99.7428 20.8V27.04H88.4628V32H96.7828V37.96H88.4628V49H80.6228V20.8H99.7428ZM124.285 20.8V27.04H116.765V49H108.925V27.04H101.485V20.8H124.285Z" fill="url(#paint0_linear_3_63)"/>
<path d="M28.268 54.764V57.212H31.148V58.328H28.268V60.884H31.508V62H26.9V53.648H31.508V54.764H28.268ZM39.0822 56.504H37.8582V62H36.4782V56.504H35.6982V55.388H36.4782V54.92C36.4782 54.16 36.6782 53.608 37.0782 53.264C37.4862 52.912 38.1222 52.736 38.9862 52.736V53.876C38.5702 53.876 38.2782 53.956 38.1102 54.116C37.9422 54.268 37.8582 54.536 37.8582 54.92V55.388H39.0822V56.504ZM39.8385 58.664C39.8385 58 39.9745 57.412 40.2465 56.9C40.5265 56.388 40.9025 55.992 41.3745 55.712C41.8545 55.424 42.3825 55.28 42.9585 55.28C43.4785 55.28 43.9305 55.384 44.3145 55.592C44.7065 55.792 45.0185 56.044 45.2505 56.348V55.388H46.6305V62H45.2505V61.016C45.0185 61.328 44.7025 61.588 44.3025 61.796C43.9025 62.004 43.4465 62.108 42.9345 62.108C42.3665 62.108 41.8465 61.964 41.3745 61.676C40.9025 61.38 40.5265 60.972 40.2465 60.452C39.9745 59.924 39.8385 59.328 39.8385 58.664ZM45.2505 58.688C45.2505 58.232 45.1545 57.836 44.9625 57.5C44.7785 57.164 44.5345 56.908 44.2305 56.732C43.9265 56.556 43.5985 56.468 43.2465 56.468C42.8945 56.468 42.5665 56.556 42.2625 56.732C41.9585 56.9 41.7105 57.152 41.5185 57.488C41.3345 57.816 41.2425 58.208 41.2425 58.664C41.2425 59.12 41.3345 59.52 41.5185 59.864C41.7105 60.208 41.9585 60.472 42.2625 60.656C42.5745 60.832 42.9025 60.92 43.2465 60.92C43.5985 60.92 43.9265 60.832 44.2305 60.656C44.5345 60.48 44.7785 60.224 44.9625 59.888C45.1545 59.544 45.2505 59.144 45.2505 58.688ZM47.9713 58.688C47.9713 58.008 48.1073 57.412 48.3793 56.9C48.6593 56.38 49.0433 55.98 49.5313 55.7C50.0193 55.42 50.5793 55.28 51.2113 55.28C52.0113 55.28 52.6713 55.472 53.1913 55.856C53.7193 56.232 54.0753 56.772 54.2593 57.476H52.7833C52.6633 57.148 52.4713 56.892 52.2073 56.708C51.9433 56.524 51.6113 56.432 51.2113 56.432C50.6513 56.432 50.2033 56.632 49.8673 57.032C49.5393 57.424 49.3753 57.976 49.3753 58.688C49.3753 59.4 49.5393 59.956 49.8673 60.356C50.2033 60.756 50.6513 60.956 51.2113 60.956C52.0033 60.956 52.5273 60.608 52.7833 59.912H54.2593C54.0673 60.584 53.7073 61.12 53.1793 61.52C52.6513 61.912 51.9953 62.108 51.2113 62.108C50.5793 62.108 50.0193 61.968 49.5313 61.688C49.0433 61.4 48.6593 61 48.3793 60.488C48.1073 59.968 47.9713 59.368 47.9713 58.688ZM55.1667 58.688C55.1667 58.008 55.3027 57.412 55.5747 56.9C55.8547 56.38 56.2387 55.98 56.7267 55.7C57.2147 55.42 57.7747 55.28 58.4067 55.28C59.2067 55.28 59.8667 55.472 60.3867 55.856C60.9147 56.232 61.2707 56.772 61.4547 57.476H59.9787C59.8587 57.148 59.6667 56.892 59.4027 56.708C59.1387 56.524 58.8067 56.432 58.4067 56.432C57.8467 56.432 57.3987 56.632 57.0627 57.032C56.7347 57.424 56.5707 57.976 56.5707 58.688C56.5707 59.4 56.7347 59.956 57.0627 60.356C57.3987 60.756 57.8467 60.956 58.4067 60.956C59.1987 60.956 59.7227 60.608 59.9787 59.912H61.4547C61.2627 60.584 60.9027 61.12 60.3747 61.52C59.8467 61.912 59.1907 62.108 58.4067 62.108C57.7747 62.108 57.2147 61.968 56.7267 61.688C56.2387 61.4 55.8547 61 55.5747 60.488C55.3027 59.968 55.1667 59.368 55.1667 58.688ZM63.514 54.512C63.266 54.512 63.058 54.428 62.89 54.26C62.722 54.092 62.638 53.884 62.638 53.636C62.638 53.388 62.722 53.18 62.89 53.012C63.058 52.844 63.266 52.76 63.514 52.76C63.754 52.76 63.958 52.844 64.126 53.012C64.294 53.18 64.378 53.388 64.378 53.636C64.378 53.884 64.294 54.092 64.126 54.26C63.958 54.428 63.754 54.512 63.514 54.512ZM64.186 55.388V62H62.818V55.388H64.186ZM65.526 58.664C65.526 58 65.662 57.412 65.934 56.9C66.214 56.388 66.59 55.992 67.062 55.712C67.542 55.424 68.07 55.28 68.646 55.28C69.166 55.28 69.618 55.384 70.002 55.592C70.394 55.792 70.706 56.044 70.938 56.348V55.388H72.318V62H70.938V61.016C70.706 61.328 70.39 61.588 69.99 61.796C69.59 62.004 69.134 62.108 68.622 62.108C68.054 62.108 67.534 61.964 67.062 61.676C66.59 61.38 66.214 60.972 65.934 60.452C65.662 59.924 65.526 59.328 65.526 58.664ZM70.938 58.688C70.938 58.232 70.842 57.836 70.65 57.5C70.466 57.164 70.222 56.908 69.918 56.732C69.614 56.556 69.286 56.468 68.934 56.468C68.582 56.468 68.254 56.556 67.95 56.732C67.646 56.9 67.398 57.152 67.206 57.488C67.022 57.816 66.93 58.208 66.93 58.664C66.93 59.12 67.022 59.52 67.206 59.864C67.398 60.208 67.646 60.472 67.95 60.656C68.262 60.832 68.59 60.92 68.934 60.92C69.286 60.92 69.614 60.832 69.918 60.656C70.222 60.48 70.466 60.224 70.65 59.888C70.842 59.544 70.938 59.144 70.938 58.688ZM82.1188 55.28C82.6388 55.28 83.1028 55.388 83.5108 55.604C83.9268 55.82 84.2508 56.14 84.4828 56.564C84.7228 56.988 84.8428 57.5 84.8428 58.1V62H83.4868V58.304C83.4868 57.712 83.3388 57.26 83.0428 56.948C82.7468 56.628 82.3428 56.468 81.8308 56.468C81.3188 56.468 80.9108 56.628 80.6068 56.948C80.3108 57.26 80.1628 57.712 80.1628 58.304V62H78.8068V58.304C78.8068 57.712 78.6588 57.26 78.3628 56.948C78.0668 56.628 77.6628 56.468 77.1508 56.468C76.6388 56.468 76.2308 56.628 75.9268 56.948C75.6308 57.26 75.4828 57.712 75.4828 58.304V62H74.1148V55.388H75.4828V56.144C75.7068 55.872 75.9908 55.66 76.3348 55.508C76.6788 55.356 77.0468 55.28 77.4388 55.28C77.9668 55.28 78.4388 55.392 78.8548 55.616C79.2708 55.84 79.5908 56.164 79.8148 56.588C80.0148 56.188 80.3268 55.872 80.7508 55.64C81.1748 55.4 81.6308 55.28 82.1188 55.28ZM89.4516 62.108C88.8276 62.108 88.2636 61.968 87.7596 61.688C87.2556 61.4 86.8596 61 86.5716 60.488C86.2836 59.968 86.1396 59.368 86.1396 58.688C86.1396 58.016 86.2876 57.42 86.5836 56.9C86.8796 56.38 87.2836 55.98 87.7956 55.7C88.3076 55.42 88.8796 55.28 89.5116 55.28C90.1436 55.28 90.7156 55.42 91.2276 55.7C91.7396 55.98 92.1436 56.38 92.4396 56.9C92.7356 57.42 92.8836 58.016 92.8836 58.688C92.8836 59.36 92.7316 59.956 92.4276 60.476C92.1236 60.996 91.7076 61.4 91.1796 61.688C90.6596 61.968 90.0836 62.108 89.4516 62.108ZM89.4516 60.92C89.8036 60.92 90.1316 60.836 90.4356 60.668C90.7476 60.5 90.9996 60.248 91.1916 59.912C91.3836 59.576 91.4796 59.168 91.4796 58.688C91.4796 58.208 91.3876 57.804 91.2036 57.476C91.0196 57.14 90.7756 56.888 90.4716 56.72C90.1676 56.552 89.8396 56.468 89.4876 56.468C89.1356 56.468 88.8076 56.552 88.5036 56.72C88.2076 56.888 87.9716 57.14 87.7956 57.476C87.6196 57.804 87.5316 58.208 87.5316 58.688C87.5316 59.4 87.7116 59.952 88.0716 60.344C88.4396 60.728 88.8996 60.92 89.4516 60.92ZM96.8971 58.688C96.8971 58.008 97.0331 57.412 97.3051 56.9C97.5851 56.38 97.9691 55.98 98.4571 55.7C98.9451 55.42 99.5051 55.28 100.137 55.28C100.937 55.28 101.597 55.472 102.117 55.856C102.645 56.232 103.001 56.772 103.185 57.476H101.709C101.589 57.148 101.397 56.892 101.133 56.708C100.869 56.524 100.537 56.432 100.137 56.432C99.5771 56.432 99.1291 56.632 98.7931 57.032C98.4651 57.424 98.3011 57.976 98.3011 58.688C98.3011 59.4 98.4651 59.956 98.7931 60.356C99.1291 60.756 99.5771 60.956 100.137 60.956C100.929 60.956 101.453 60.608 101.709 59.912H103.185C102.993 60.584 102.633 61.12 102.105 61.52C101.577 61.912 100.921 62.108 100.137 62.108C99.5051 62.108 98.9451 61.968 98.4571 61.688C97.9691 61.4 97.5851 61 97.3051 60.488C97.0331 59.968 96.8971 59.368 96.8971 58.688ZM104.092 58.664C104.092 58 104.228 57.412 104.5 56.9C104.78 56.388 105.156 55.992 105.628 55.712C106.108 55.424 106.636 55.28 107.212 55.28C107.732 55.28 108.184 55.384 108.568 55.592C108.96 55.792 109.272 56.044 109.504 56.348V55.388H110.884V62H109.504V61.016C109.272 61.328 108.956 61.588 108.556 61.796C108.156 62.004 107.7 62.108 107.188 62.108C106.62 62.108 106.1 61.964 105.628 61.676C105.156 61.38 104.78 60.972 104.5 60.452C104.228 59.924 104.092 59.328 104.092 58.664ZM109.504 58.688C109.504 58.232 109.408 57.836 109.216 57.5C109.032 57.164 108.788 56.908 108.484 56.732C108.18 56.556 107.852 56.468 107.5 56.468C107.148 56.468 106.82 56.556 106.516 56.732C106.212 56.9 105.964 57.152 105.772 57.488C105.588 57.816 105.496 58.208 105.496 58.664C105.496 59.12 105.588 59.52 105.772 59.864C105.964 60.208 106.212 60.472 106.516 60.656C106.828 60.832 107.156 60.92 107.5 60.92C107.852 60.92 108.18 60.832 108.484 60.656C108.788 60.48 109.032 60.224 109.216 59.888C109.408 59.544 109.504 59.144 109.504 58.688ZM114.049 53.12V62H112.681V53.12H114.049ZM115.389 58.688C115.389 58.008 115.525 57.412 115.797 56.9C116.077 56.38 116.461 55.98 116.949 55.7C117.437 55.42 117.997 55.28 118.629 55.28C119.429 55.28 120.089 55.472 120.609 55.856C121.137 56.232 121.493 56.772 121.677 57.476H120.201C120.081 57.148 119.889 56.892 119.625 56.708C119.361 56.524 119.029 56.432 118.629 56.432C118.069 56.432 117.621 56.632 117.285 57.032C116.957 57.424 116.793 57.976 116.793 58.688C116.793 59.4 116.957 59.956 117.285 60.356C117.621 60.756 118.069 60.956 118.629 60.956C119.421 60.956 119.945 60.608 120.201 59.912H121.677C121.485 60.584 121.125 61.12 120.597 61.52C120.069 61.912 119.413 62.108 118.629 62.108C117.997 62.108 117.437 61.968 116.949 61.688C116.461 61.4 116.077 61 115.797 60.488C115.525 59.968 115.389 59.368 115.389 58.688ZM123.737 54.512C123.489 54.512 123.281 54.428 123.113 54.26C122.945 54.092 122.861 53.884 122.861 53.636C122.861 53.388 122.945 53.18 123.113 53.012C123.281 52.844 123.489 52.76 123.737 52.76C123.977 52.76 124.181 52.844 124.349 53.012C124.517 53.18 124.601 53.388 124.601 53.636C124.601 53.884 124.517 54.092 124.349 54.26C124.181 54.428 123.977 54.512 123.737 54.512ZM124.409 55.388V62H123.041V55.388H124.409ZM129.073 62.108C128.449 62.108 127.885 61.968 127.381 61.688C126.877 61.4 126.481 61 126.193 60.488C125.905 59.968 125.761 59.368 125.761 58.688C125.761 58.016 125.909 57.42 126.205 56.9C126.501 56.38 126.905 55.98 127.417 55.7C127.929 55.42 128.501 55.28 129.133 55.28C129.765 55.28 130.337 55.42 130.849 55.7C131.361 55.98 131.765 56.38 132.061 56.9C132.357 57.42 132.505 58.016 132.505 58.688C132.505 59.36 132.353 59.956 132.049 60.476C131.745 60.996 131.329 61.4 130.801 61.688C130.281 61.968 129.705 62.108 129.073 62.108ZM129.073 60.92C129.425 60.92 129.753 60.836 130.057 60.668C130.369 60.5 130.621 60.248 130.813 59.912C131.005 59.576 131.101 59.168 131.101 58.688C131.101 58.208 131.009 57.804 130.825 57.476C130.641 57.14 130.397 56.888 130.093 56.72C129.789 56.552 129.461 56.468 129.109 56.468C128.757 56.468 128.429 56.552 128.125 56.72C127.829 56.888 127.593 57.14 127.417 57.476C127.241 57.804 127.153 58.208 127.153 58.688C127.153 59.4 127.333 59.952 127.693 60.344C128.061 60.728 128.521 60.92 129.073 60.92ZM134.409 62.084C134.161 62.084 133.953 62 133.785 61.832C133.617 61.664 133.533 61.456 133.533 61.208C133.533 60.96 133.617 60.752 133.785 60.584C133.953 60.416 134.161 60.332 134.409 60.332C134.649 60.332 134.853 60.416 135.021 60.584C135.189 60.752 135.273 60.96 135.273 61.208C135.273 61.456 135.189 61.664 135.021 61.832C134.853 62 134.649 62.084 134.409 62.084ZM137.304 62.084C137.056 62.084 136.848 62 136.68 61.832C136.512 61.664 136.428 61.456 136.428 61.208C136.428 60.96 136.512 60.752 136.68 60.584C136.848 60.416 137.056 60.332 137.304 60.332C137.544 60.332 137.748 60.416 137.916 60.584C138.084 60.752 138.168 60.96 138.168 61.208C138.168 61.456 138.084 61.664 137.916 61.832C137.748 62 137.544 62.084 137.304 62.084ZM140.198 62.084C139.95 62.084 139.742 62 139.574 61.832C139.406 61.664 139.322 61.456 139.322 61.208C139.322 60.96 139.406 60.752 139.574 60.584C139.742 60.416 139.95 60.332 140.198 60.332C140.438 60.332 140.642 60.416 140.81 60.584C140.978 60.752 141.062 60.96 141.062 61.208C141.062 61.456 140.978 61.664 140.81 61.832C140.642 62 140.438 62.084 140.198 62.084Z" fill="url(#paint1_linear_3_63)"/>
<path d="M83 5.5C104.199 5.5 123.366 10.0204 137.215 17.3047C151.087 24.6011 159.5 34.5945 159.5 45.5C159.5 56.4055 151.087 66.3989 137.215 73.6953C123.366 80.9796 104.199 85.5 83 85.5C61.8015 85.5 42.6342 80.9796 28.7852 73.6953C14.9131 66.3989 6.5 56.4055 6.5 45.5C6.5 34.5945 14.9131 24.6011 28.7852 17.3047C42.6342 10.0204 61.8015 5.5 83 5.5Z" stroke="url(#paint2_linear_3_63)"/>
<defs>
<linearGradient id="paint0_linear_3_63" x1="41" y1="33.6765" x2="131.419" y2="33.6765" gradientUnits="userSpaceOnUse">
<stop stop-color="#9615FA"/>
<stop offset="1" stop-color="#1B5CFB"/>
</linearGradient>
<linearGradient id="paint1_linear_3_63" x1="26" y1="58" x2="145" y2="58" gradientUnits="userSpaceOnUse">
<stop stop-color="#9616FA"/>
<stop offset="1" stop-color="#1C5CFB"/>
</linearGradient>
<linearGradient id="paint2_linear_3_63" x1="6" y1="45.5" x2="160" y2="45.5" gradientUnits="userSpaceOnUse">
<stop stop-color="#9616FA"/>
<stop offset="1" stop-color="#1D5CFC"/>
</linearGradient>
</defs>
</svg>
