<svg width="171" height="68" viewBox="0 0 171 68" fill="none" xmlns="http://www.w3.org/2000/svg">
<path d="M76.16 14.8V43H68.32V27.44L63 43H56.44L51.08 27.32V43H43.24V14.8H52.72L59.8 33.12L66.72 14.8H76.16ZM99.7428 14.8V21.04H88.4628V26H96.7828V31.96H88.4628V43H80.6228V14.8H99.7428ZM124.285 14.8V21.04H116.765V43H108.925V21.04H101.485V14.8H124.285Z" fill="url(#paint0_linear_3_61)"/>
<path d="M28.268 48.764V51.212H31.148V52.328H28.268V54.884H31.508V56H26.9V47.648H31.508V48.764H28.268ZM39.0822 50.504H37.8582V56H36.4782V50.504H35.6982V49.388H36.4782V48.92C36.4782 48.16 36.6782 47.608 37.0782 47.264C37.4862 46.912 38.1222 46.736 38.9862 46.736V47.876C38.5702 47.876 38.2782 47.956 38.1102 48.116C37.9422 48.268 37.8582 48.536 37.8582 48.92V49.388H39.0822V50.504ZM39.8385 52.664C39.8385 52 39.9745 51.412 40.2465 50.9C40.5265 50.388 40.9025 49.992 41.3745 49.712C41.8545 49.424 42.3825 49.28 42.9585 49.28C43.4785 49.28 43.9305 49.384 44.3145 49.592C44.7065 49.792 45.0185 50.044 45.2505 50.348V49.388H46.6305V56H45.2505V55.016C45.0185 55.328 44.7025 55.588 44.3025 55.796C43.9025 56.004 43.4465 56.108 42.9345 56.108C42.3665 56.108 41.8465 55.964 41.3745 55.676C40.9025 55.38 40.5265 54.972 40.2465 54.452C39.9745 53.924 39.8385 53.328 39.8385 52.664ZM45.2505 52.688C45.2505 52.232 45.1545 51.836 44.9625 51.5C44.7785 51.164 44.5345 50.908 44.2305 50.732C43.9265 50.556 43.5985 50.468 43.2465 50.468C42.8945 50.468 42.5665 50.556 42.2625 50.732C41.9585 50.9 41.7105 51.152 41.5185 51.488C41.3345 51.816 41.2425 52.208 41.2425 52.664C41.2425 53.12 41.3345 53.52 41.5185 53.864C41.7105 54.208 41.9585 54.472 42.2625 54.656C42.5745 54.832 42.9025 54.92 43.2465 54.92C43.5985 54.92 43.9265 54.832 44.2305 54.656C44.5345 54.48 44.7785 54.224 44.9625 53.888C45.1545 53.544 45.2505 53.144 45.2505 52.688ZM47.9713 52.688C47.9713 52.008 48.1073 51.412 48.3793 50.9C48.6593 50.38 49.0433 49.98 49.5313 49.7C50.0193 49.42 50.5793 49.28 51.2113 49.28C52.0113 49.28 52.6713 49.472 53.1913 49.856C53.7193 50.232 54.0753 50.772 54.2593 51.476H52.7833C52.6633 51.148 52.4713 50.892 52.2073 50.708C51.9433 50.524 51.6113 50.432 51.2113 50.432C50.6513 50.432 50.2033 50.632 49.8673 51.032C49.5393 51.424 49.3753 51.976 49.3753 52.688C49.3753 53.4 49.5393 53.956 49.8673 54.356C50.2033 54.756 50.6513 54.956 51.2113 54.956C52.0033 54.956 52.5273 54.608 52.7833 53.912H54.2593C54.0673 54.584 53.7073 55.12 53.1793 55.52C52.6513 55.912 51.9953 56.108 51.2113 56.108C50.5793 56.108 50.0193 55.968 49.5313 55.688C49.0433 55.4 48.6593 55 48.3793 54.488C48.1073 53.968 47.9713 53.368 47.9713 52.688ZM55.1667 52.688C55.1667 52.008 55.3027 51.412 55.5747 50.9C55.8547 50.38 56.2387 49.98 56.7267 49.7C57.2147 49.42 57.7747 49.28 58.4067 49.28C59.2067 49.28 59.8667 49.472 60.3867 49.856C60.9147 50.232 61.2707 50.772 61.4547 51.476H59.9787C59.8587 51.148 59.6667 50.892 59.4027 50.708C59.1387 50.524 58.8067 50.432 58.4067 50.432C57.8467 50.432 57.3987 50.632 57.0627 51.032C56.7347 51.424 56.5707 51.976 56.5707 52.688C56.5707 53.4 56.7347 53.956 57.0627 54.356C57.3987 54.756 57.8467 54.956 58.4067 54.956C59.1987 54.956 59.7227 54.608 59.9787 53.912H61.4547C61.2627 54.584 60.9027 55.12 60.3747 55.52C59.8467 55.912 59.1907 56.108 58.4067 56.108C57.7747 56.108 57.2147 55.968 56.7267 55.688C56.2387 55.4 55.8547 55 55.5747 54.488C55.3027 53.968 55.1667 53.368 55.1667 52.688ZM63.514 48.512C63.266 48.512 63.058 48.428 62.89 48.26C62.722 48.092 62.638 47.884 62.638 47.636C62.638 47.388 62.722 47.18 62.89 47.012C63.058 46.844 63.266 46.76 63.514 46.76C63.754 46.76 63.958 46.844 64.126 47.012C64.294 47.18 64.378 47.388 64.378 47.636C64.378 47.884 64.294 48.092 64.126 48.26C63.958 48.428 63.754 48.512 63.514 48.512ZM64.186 49.388V56H62.818V49.388H64.186ZM65.526 52.664C65.526 52 65.662 51.412 65.934 50.9C66.214 50.388 66.59 49.992 67.062 49.712C67.542 49.424 68.07 49.28 68.646 49.28C69.166 49.28 69.618 49.384 70.002 49.592C70.394 49.792 70.706 50.044 70.938 50.348V49.388H72.318V56H70.938V55.016C70.706 55.328 70.39 55.588 69.99 55.796C69.59 56.004 69.134 56.108 68.622 56.108C68.054 56.108 67.534 55.964 67.062 55.676C66.59 55.38 66.214 54.972 65.934 54.452C65.662 53.924 65.526 53.328 65.526 52.664ZM70.938 52.688C70.938 52.232 70.842 51.836 70.65 51.5C70.466 51.164 70.222 50.908 69.918 50.732C69.614 50.556 69.286 50.468 68.934 50.468C68.582 50.468 68.254 50.556 67.95 50.732C67.646 50.9 67.398 51.152 67.206 51.488C67.022 51.816 66.93 52.208 66.93 52.664C66.93 53.12 67.022 53.52 67.206 53.864C67.398 54.208 67.646 54.472 67.95 54.656C68.262 54.832 68.59 54.92 68.934 54.92C69.286 54.92 69.614 54.832 69.918 54.656C70.222 54.48 70.466 54.224 70.65 53.888C70.842 53.544 70.938 53.144 70.938 52.688ZM82.1188 49.28C82.6388 49.28 83.1028 49.388 83.5108 49.604C83.9268 49.82 84.2508 50.14 84.4828 50.564C84.7228 50.988 84.8428 51.5 84.8428 52.1V56H83.4868V52.304C83.4868 51.712 83.3388 51.26 83.0428 50.948C82.7468 50.628 82.3428 50.468 81.8308 50.468C81.3188 50.468 80.9108 50.628 80.6068 50.948C80.3108 51.26 80.1628 51.712 80.1628 52.304V56H78.8068V52.304C78.8068 51.712 78.6588 51.26 78.3628 50.948C78.0668 50.628 77.6628 50.468 77.1508 50.468C76.6388 50.468 76.2308 50.628 75.9268 50.948C75.6308 51.26 75.4828 51.712 75.4828 52.304V56H74.1148V49.388H75.4828V50.144C75.7068 49.872 75.9908 49.66 76.3348 49.508C76.6788 49.356 77.0468 49.28 77.4388 49.28C77.9668 49.28 78.4388 49.392 78.8548 49.616C79.2708 49.84 79.5908 50.164 79.8148 50.588C80.0148 50.188 80.3268 49.872 80.7508 49.64C81.1748 49.4 81.6308 49.28 82.1188 49.28ZM89.4516 56.108C88.8276 56.108 88.2636 55.968 87.7596 55.688C87.2556 55.4 86.8596 55 86.5716 54.488C86.2836 53.968 86.1396 53.368 86.1396 52.688C86.1396 52.016 86.2876 51.42 86.5836 50.9C86.8796 50.38 87.2836 49.98 87.7956 49.7C88.3076 49.42 88.8796 49.28 89.5116 49.28C90.1436 49.28 90.7156 49.42 91.2276 49.7C91.7396 49.98 92.1436 50.38 92.4396 50.9C92.7356 51.42 92.8836 52.016 92.8836 52.688C92.8836 53.36 92.7316 53.956 92.4276 54.476C92.1236 54.996 91.7076 55.4 91.1796 55.688C90.6596 55.968 90.0836 56.108 89.4516 56.108ZM89.4516 54.92C89.8036 54.92 90.1316 54.836 90.4356 54.668C90.7476 54.5 90.9996 54.248 91.1916 53.912C91.3836 53.576 91.4796 53.168 91.4796 52.688C91.4796 52.208 91.3876 51.804 91.2036 51.476C91.0196 51.14 90.7756 50.888 90.4716 50.72C90.1676 50.552 89.8396 50.468 89.4876 50.468C89.1356 50.468 88.8076 50.552 88.5036 50.72C88.2076 50.888 87.9716 51.14 87.7956 51.476C87.6196 51.804 87.5316 52.208 87.5316 52.688C87.5316 53.4 87.7116 53.952 88.0716 54.344C88.4396 54.728 88.8996 54.92 89.4516 54.92ZM96.8971 52.688C96.8971 52.008 97.0331 51.412 97.3051 50.9C97.5851 50.38 97.9691 49.98 98.4571 49.7C98.9451 49.42 99.5051 49.28 100.137 49.28C100.937 49.28 101.597 49.472 102.117 49.856C102.645 50.232 103.001 50.772 103.185 51.476H101.709C101.589 51.148 101.397 50.892 101.133 50.708C100.869 50.524 100.537 50.432 100.137 50.432C99.5771 50.432 99.1291 50.632 98.7931 51.032C98.4651 51.424 98.3011 51.976 98.3011 52.688C98.3011 53.4 98.4651 53.956 98.7931 54.356C99.1291 54.756 99.5771 54.956 100.137 54.956C100.929 54.956 101.453 54.608 101.709 53.912H103.185C102.993 54.584 102.633 55.12 102.105 55.52C101.577 55.912 100.921 56.108 100.137 56.108C99.5051 56.108 98.9451 55.968 98.4571 55.688C97.9691 55.4 97.5851 55 97.3051 54.488C97.0331 53.968 96.8971 53.368 96.8971 52.688ZM104.092 52.664C104.092 52 104.228 51.412 104.5 50.9C104.78 50.388 105.156 49.992 105.628 49.712C106.108 49.424 106.636 49.28 107.212 49.28C107.732 49.28 108.184 49.384 108.568 49.592C108.96 49.792 109.272 50.044 109.504 50.348V49.388H110.884V56H109.504V55.016C109.272 55.328 108.956 55.588 108.556 55.796C108.156 56.004 107.7 56.108 107.188 56.108C106.62 56.108 106.1 55.964 105.628 55.676C105.156 55.38 104.78 54.972 104.5 54.452C104.228 53.924 104.092 53.328 104.092 52.664ZM109.504 52.688C109.504 52.232 109.408 51.836 109.216 51.5C109.032 51.164 108.788 50.908 108.484 50.732C108.18 50.556 107.852 50.468 107.5 50.468C107.148 50.468 106.82 50.556 106.516 50.732C106.212 50.9 105.964 51.152 105.772 51.488C105.588 51.816 105.496 52.208 105.496 52.664C105.496 53.12 105.588 53.52 105.772 53.864C105.964 54.208 106.212 54.472 106.516 54.656C106.828 54.832 107.156 54.92 107.5 54.92C107.852 54.92 108.18 54.832 108.484 54.656C108.788 54.48 109.032 54.224 109.216 53.888C109.408 53.544 109.504 53.144 109.504 52.688ZM114.049 47.12V56H112.681V47.12H114.049ZM115.389 52.688C115.389 52.008 115.525 51.412 115.797 50.9C116.077 50.38 116.461 49.98 116.949 49.7C117.437 49.42 117.997 49.28 118.629 49.28C119.429 49.28 120.089 49.472 120.609 49.856C121.137 50.232 121.493 50.772 121.677 51.476H120.201C120.081 51.148 119.889 50.892 119.625 50.708C119.361 50.524 119.029 50.432 118.629 50.432C118.069 50.432 117.621 50.632 117.285 51.032C116.957 51.424 116.793 51.976 116.793 52.688C116.793 53.4 116.957 53.956 117.285 54.356C117.621 54.756 118.069 54.956 118.629 54.956C119.421 54.956 119.945 54.608 120.201 53.912H121.677C121.485 54.584 121.125 55.12 120.597 55.52C120.069 55.912 119.413 56.108 118.629 56.108C117.997 56.108 117.437 55.968 116.949 55.688C116.461 55.4 116.077 55 115.797 54.488C115.525 53.968 115.389 53.368 115.389 52.688ZM123.737 48.512C123.489 48.512 123.281 48.428 123.113 48.26C122.945 48.092 122.861 47.884 122.861 47.636C122.861 47.388 122.945 47.18 123.113 47.012C123.281 46.844 123.489 46.76 123.737 46.76C123.977 46.76 124.181 46.844 124.349 47.012C124.517 47.18 124.601 47.388 124.601 47.636C124.601 47.884 124.517 48.092 124.349 48.26C124.181 48.428 123.977 48.512 123.737 48.512ZM124.409 49.388V56H123.041V49.388H124.409ZM129.073 56.108C128.449 56.108 127.885 55.968 127.381 55.688C126.877 55.4 126.481 55 126.193 54.488C125.905 53.968 125.761 53.368 125.761 52.688C125.761 52.016 125.909 51.42 126.205 50.9C126.501 50.38 126.905 49.98 127.417 49.7C127.929 49.42 128.501 49.28 129.133 49.28C129.765 49.28 130.337 49.42 130.849 49.7C131.361 49.98 131.765 50.38 132.061 50.9C132.357 51.42 132.505 52.016 132.505 52.688C132.505 53.36 132.353 53.956 132.049 54.476C131.745 54.996 131.329 55.4 130.801 55.688C130.281 55.968 129.705 56.108 129.073 56.108ZM129.073 54.92C129.425 54.92 129.753 54.836 130.057 54.668C130.369 54.5 130.621 54.248 130.813 53.912C131.005 53.576 131.101 53.168 131.101 52.688C131.101 52.208 131.009 51.804 130.825 51.476C130.641 51.14 130.397 50.888 130.093 50.72C129.789 50.552 129.461 50.468 129.109 50.468C128.757 50.468 128.429 50.552 128.125 50.72C127.829 50.888 127.593 51.14 127.417 51.476C127.241 51.804 127.153 52.208 127.153 52.688C127.153 53.4 127.333 53.952 127.693 54.344C128.061 54.728 128.521 54.92 129.073 54.92ZM134.409 56.084C134.161 56.084 133.953 56 133.785 55.832C133.617 55.664 133.533 55.456 133.533 55.208C133.533 54.96 133.617 54.752 133.785 54.584C133.953 54.416 134.161 54.332 134.409 54.332C134.649 54.332 134.853 54.416 135.021 54.584C135.189 54.752 135.273 54.96 135.273 55.208C135.273 55.456 135.189 55.664 135.021 55.832C134.853 56 134.649 56.084 134.409 56.084ZM137.304 56.084C137.056 56.084 136.848 56 136.68 55.832C136.512 55.664 136.428 55.456 136.428 55.208C136.428 54.96 136.512 54.752 136.68 54.584C136.848 54.416 137.056 54.332 137.304 54.332C137.544 54.332 137.748 54.416 137.916 54.584C138.084 54.752 138.168 54.96 138.168 55.208C138.168 55.456 138.084 55.664 137.916 55.832C137.748 56 137.544 56.084 137.304 56.084ZM140.198 56.084C139.95 56.084 139.742 56 139.574 55.832C139.406 55.664 139.322 55.456 139.322 55.208C139.322 54.96 139.406 54.752 139.574 54.584C139.742 54.416 139.95 54.332 140.198 54.332C140.438 54.332 140.642 54.416 140.81 54.584C140.978 54.752 141.062 54.96 141.062 55.208C141.062 55.456 140.978 55.664 140.81 55.832C140.642 56 140.438 56.084 140.198 56.084Z" fill="url(#paint1_linear_3_61)"/>
<defs>
<linearGradient id="paint0_linear_3_61" x1="41" y1="27.6765" x2="130.419" y2="27.6765" gradientUnits="userSpaceOnUse">
<stop stop-color="#9615FA"/>
<stop offset="1" stop-color="#1B5CFB"/>
</linearGradient>
<linearGradient id="paint1_linear_3_61" x1="26" y1="52" x2="145" y2="52" gradientUnits="userSpaceOnUse">
<stop stop-color="#9616FA"/>
<stop offset="1" stop-color="#1C5CFB"/>
</linearGradient>
</defs>
</svg>
